# xmcd
#
# Track frame offsets: 
#        150
#        15742
#        34020
#        50405
#        69497
#        86019
#        101567
#        122750
#        138770
#        162540
#        180627
#        198986
#        224385
#        239820
#        255969
#        273979
#        286874
#
# Disc length: 4099 seconds
#
# Revision: 0
# Processed by: cddbd v1.5.2PL0 Copyright (c) Steve Scherf et al.
# Submitted via: ExactAudioCopyFreeDBPlugin 1.0
#
DISCID=f3100111
DTITLE=Imelda May - Life Love Flesh Blood [Deluxe edition]
DYEAR=2017
DGENRE=Jazz
TTITLE0=Call Me
TTITLE1=Black Tears
TTITLE2=Should a Been You
TTITLE3=Sixth Sense
TTITLE4=Human
TTITLE5=How Bad Can a Good Girl Be
TTITLE6=Bad Habit
TTITLE7=Levitate
TTITLE8=When It's My Time
TTITLE9=Leave Me Lonely
TTITLE10=The Girl I Used to Be
TTITLE11=The Longing
TTITLE12=Flesh and Blood
TTITLE13=I Choose Love
TTITLE14=Game Changer
TTITLE15=It Must Be Love (Ukulele)
TTITLE16=All I Want Is You (Ukulele)
EXTD=
EXTT0=
EXTT1=
EXTT2=
EXTT3=
EXTT4=
EXTT5=
EXTT6=
EXTT7=
EXTT8=
EXTT9=
EXTT10=
EXTT11=
EXTT12=
EXTT13=
EXTT14=
EXTT15=
EXTT16=
PLAYORDER=
